<svg width="11" height="22" viewBox="0 0 11 22" fill="none" xmlns="http://www.w3.org/2000/svg">
<path d="M8.25149 -5.16187e-06C8.80717 -5.16187e-06 9.3748 0.0314144 9.93047 0.0565501C10.2949 0.0565501 10.6594 0.125673 11 0.169661V3.70751H9.59587C9.32102 3.70751 9.0402 3.70751 8.76534 3.70751C7.87507 3.70751 7.21782 4.09083 7.17002 5.25963C7.14014 6.10796 7.12222 7.968 7.12222 8.06855H10.8387C10.6594 9.42587 10.4921 10.7329 10.3129 12.0463H7.12222L7.05052 21.9937H3.13091L3.20261 12.04H0L0.0298751 8.08111H3.25041V7.79205C3.25041 6.994 3.25041 6.19594 3.25041 5.39788C3.2534 4.89034 3.29536 4.38389 3.37588 3.88346C3.46374 3.29322 3.6628 2.72738 3.96137 2.21914C4.25995 1.71089 4.65203 1.27048 5.11461 0.923731C5.94246 0.31914 6.92695 -0.00332351 7.93482 -5.16187e-06H8.25149Z" fill="white"/>
</svg>
