<svg width="14" height="27" viewBox="0 0 14 27" fill="none" xmlns="http://www.w3.org/2000/svg">
<path d="M9.95605 3.05936e-05C10.6265 3.05936e-05 11.3114 0.0379407 11.9819 0.0682688C12.4216 0.0682688 12.8614 0.151671 13.2723 0.204745V4.47342H11.5781C11.2465 4.47342 10.9077 4.47342 10.5761 4.47342C9.50186 4.47342 8.70884 4.93593 8.65117 6.34618C8.61512 7.36976 8.59349 9.61403 8.59349 9.73535H13.0777C12.8614 11.3731 12.6595 12.9501 12.4433 14.5348H8.59349L8.50698 26.5371H3.77768L3.86419 14.5272H0L0.0360465 9.75051H3.92186V9.40174C3.92186 8.43882 3.92186 7.4759 3.92186 6.51299C3.92547 5.90061 3.9761 5.28953 4.07326 4.68572C4.17927 3.97356 4.41944 3.29083 4.77969 2.67759C5.13995 2.06436 5.61302 1.53296 6.17117 1.11459C7.17002 0.385103 8.35789 -0.00397324 9.57396 3.05936e-05H9.95605Z" fill="#3D3D3D"/>
</svg>
