<svg width="308" height="126" viewBox="0 0 308 126" fill="none" xmlns="http://www.w3.org/2000/svg">
<path d="M220.032 102.296C220.48 101.512 221.136 100.872 222 100.376C222.864 99.88 223.848 99.632 224.952 99.632C226.136 99.632 227.2 99.912 228.144 100.472C229.088 101.032 229.832 101.824 230.376 102.848C230.92 103.856 231.192 105.032 231.192 106.376C231.192 107.704 230.92 108.888 230.376 109.928C229.832 110.968 229.08 111.776 228.12 112.352C227.176 112.928 226.12 113.216 224.952 113.216C223.816 113.216 222.816 112.968 221.952 112.472C221.104 111.976 220.464 111.344 220.032 110.576V113H217.848V95.24H220.032V102.296ZM228.96 106.376C228.96 105.384 228.76 104.52 228.36 103.784C227.96 103.048 227.416 102.488 226.728 102.104C226.056 101.72 225.312 101.528 224.496 101.528C223.696 101.528 222.952 101.728 222.264 102.128C221.592 102.512 221.048 103.08 220.632 103.832C220.232 104.568 220.032 105.424 220.032 106.4C220.032 107.392 220.232 108.264 220.632 109.016C221.048 109.752 221.592 110.32 222.264 110.72C222.952 111.104 223.696 111.296 224.496 111.296C225.312 111.296 226.056 111.104 226.728 110.72C227.416 110.32 227.96 109.752 228.36 109.016C228.76 108.264 228.96 107.384 228.96 106.376ZM236.251 95.24V113H234.067V95.24H236.251ZM245.709 113.216C244.477 113.216 243.357 112.936 242.349 112.376C241.357 111.816 240.573 111.024 239.997 110C239.437 108.96 239.157 107.76 239.157 106.4C239.157 105.056 239.445 103.872 240.021 102.848C240.613 101.808 241.413 101.016 242.421 100.472C243.429 99.912 244.557 99.632 245.805 99.632C247.053 99.632 248.181 99.912 249.189 100.472C250.197 101.016 250.989 101.8 251.565 102.824C252.157 103.848 252.453 105.04 252.453 106.4C252.453 107.76 252.149 108.96 251.541 110C250.949 111.024 250.141 111.816 249.117 112.376C248.093 112.936 246.957 113.216 245.709 113.216ZM245.709 111.296C246.493 111.296 247.229 111.112 247.917 110.744C248.605 110.376 249.157 109.824 249.573 109.088C250.005 108.352 250.221 107.456 250.221 106.4C250.221 105.344 250.013 104.448 249.597 103.712C249.181 102.976 248.637 102.432 247.965 102.08C247.293 101.712 246.565 101.528 245.781 101.528C244.981 101.528 244.245 101.712 243.573 102.08C242.917 102.432 242.389 102.976 241.989 103.712C241.589 104.448 241.389 105.344 241.389 106.4C241.389 107.472 241.581 108.376 241.965 109.112C242.365 109.848 242.893 110.4 243.549 110.768C244.205 111.12 244.925 111.296 245.709 111.296ZM260.749 99.632C261.885 99.632 262.877 99.88 263.725 100.376C264.589 100.872 265.229 101.496 265.645 102.248V99.848H267.853V113.288C267.853 114.488 267.597 115.552 267.085 116.48C266.573 117.424 265.837 118.16 264.877 118.688C263.933 119.216 262.829 119.48 261.565 119.48C259.837 119.48 258.397 119.072 257.245 118.256C256.093 117.44 255.413 116.328 255.205 114.92H257.365C257.605 115.72 258.101 116.36 258.853 116.84C259.605 117.336 260.509 117.584 261.565 117.584C262.765 117.584 263.741 117.208 264.493 116.456C265.261 115.704 265.645 114.648 265.645 113.288V110.528C265.213 111.296 264.573 111.936 263.725 112.448C262.877 112.96 261.885 113.216 260.749 113.216C259.581 113.216 258.517 112.928 257.557 112.352C256.613 111.776 255.869 110.968 255.325 109.928C254.781 108.888 254.509 107.704 254.509 106.376C254.509 105.032 254.781 103.856 255.325 102.848C255.869 101.824 256.613 101.032 257.557 100.472C258.517 99.912 259.581 99.632 260.749 99.632ZM265.645 106.4C265.645 105.408 265.445 104.544 265.045 103.808C264.645 103.072 264.101 102.512 263.413 102.128C262.741 101.728 261.997 101.528 261.181 101.528C260.365 101.528 259.621 101.72 258.949 102.104C258.277 102.488 257.741 103.048 257.341 103.784C256.941 104.52 256.741 105.384 256.741 106.376C256.741 107.384 256.941 108.264 257.341 109.016C257.741 109.752 258.277 110.32 258.949 110.72C259.621 111.104 260.365 111.296 261.181 111.296C261.997 111.296 262.741 111.104 263.413 110.72C264.101 110.32 264.645 109.752 265.045 109.016C265.445 108.264 265.645 107.392 265.645 106.4Z" fill="white"/>
<path d="M63.7031 67.7344C63.9844 67.7344 64.25 67.9062 64.5 68.25C64.7812 68.5938 65 69.0156 65.1562 69.5156C65.3125 69.9844 65.3906 70.4062 65.3906 70.7812C65.4219 71.1562 65.2969 71.3594 65.0156 71.3906C58.1719 71.5469 51 72.2969 43.5 73.6406C43.2188 75.6094 42.3594 77.4531 40.9219 79.1719C39.5156 80.8594 38 82.3125 36.375 83.5312C32.5938 86.4062 27.8281 89.0781 22.0781 91.5469C16.3281 94.0469 11.1094 95.3594 6.42188 95.4844C3.70312 95.1406 2.0625 94.1719 1.5 92.5781C0.9375 90.9844 1.625 89.1875 3.5625 87.1875C6.78125 84.2812 10.4531 81.875 14.5781 79.9688C18.7344 78.0312 22.8594 76.375 26.9531 75C30.9219 73.6562 34.9531 72.5 39.0469 71.5312C38.5469 70.6875 37.8281 69.9375 36.8906 69.2812C35.9844 68.5938 35.0938 68 34.2188 67.5C33.9688 67.375 33.7344 67.2344 33.5156 67.0781C31.5781 66.0469 29.625 65.0469 27.6562 64.0781C25.2188 62.9219 22.8281 61.6875 20.4844 60.375C18.1406 59.0625 15.9531 57.5156 13.9219 55.7344C10.2656 52.2656 8.3125 48.9531 8.0625 45.7969C7.84375 42.6094 8.8125 39.6094 10.9688 36.7969C13.1562 33.9531 16.0156 31.2969 19.5469 28.8281C22.4219 26.7656 26 24.7031 30.2812 22.6406C34.5938 20.5781 39 19 43.5 17.9062C48 16.8125 52.0156 16.7031 55.5469 17.5781C58.1406 18.5781 59.75 20.1562 60.375 22.3125C61.0312 24.4375 61.0312 26.7188 60.375 29.1562C59.7188 31.5625 58.7344 33.7031 57.4219 35.5781C56.6406 36.7969 55.7188 37.8906 54.6562 38.8594C53.875 39.4531 53.1719 39.5781 52.5469 39.2344C51.9219 38.8594 51.5625 38.3281 51.4688 37.6406C51.375 36.9219 51.7188 36.2969 52.5 35.7656C56.25 33.4531 58.6406 31.0781 59.6719 28.6406C60.7344 26.1719 60.5469 24.125 59.1094 22.5C57.7031 20.8438 55.1406 20.0469 51.4219 20.1094C46.2344 20.4219 41.0312 21.7031 35.8125 23.9531C30.5938 26.1719 25.875 28.7812 21.6562 31.7812C20.0938 32.9062 18.4219 34.3125 16.6406 36C14.8594 37.6875 13.5 39.5312 12.5625 41.5312C11.6562 43.5 11.6719 45.5156 12.6094 47.5781C14.0156 50.3594 16.0312 52.6406 18.6562 54.4219C21.2812 56.2031 24.0156 57.7656 26.8594 59.1094C27.5156 59.4531 28.1562 59.7812 28.7812 60.0938C29.7188 60.5938 30.6719 61.0781 31.6406 61.5469C33.5469 62.4219 35.3906 63.4062 37.1719 64.5C38.9844 65.5938 40.5938 66.9531 42 68.5781C42.5 69.2656 42.875 69.9375 43.125 70.5938C49.9062 69.1875 56.7656 68.2344 63.7031 67.7344ZM3.32812 93.7969C4.35938 94.7656 6.53125 94.8906 9.84375 94.1719C13.1875 93.4531 16.9062 92.1094 21 90.1406C25.125 88.2031 28.8906 85.875 32.2969 83.1562C35.7031 80.4062 38.0156 77.5156 39.2344 74.4844C33.5156 75.6719 27.9844 77.2812 22.6406 79.3125C17.2969 81.3125 12.4219 83.7656 8.01562 86.6719C7.51562 87.0156 6.79688 87.6094 5.85938 88.4531C4.89062 89.3281 4.09375 90.2656 3.46875 91.2656C2.84375 92.2656 2.79688 93.1094 3.32812 93.7969ZM106.082 67.8281C106.457 68.0781 106.691 68.4062 106.785 68.8125C106.879 69.2188 106.801 69.6094 106.551 69.9844C106.207 70.4219 105.816 70.7969 105.379 71.1094C105.347 71.1406 105.301 71.1875 105.238 71.25C102.832 73.0312 100.269 74.5625 97.5506 75.8438C94.5819 77.375 91.5037 78.6719 88.3162 79.7344C87.2225 80.1094 86.0975 80.3594 84.9412 80.4844C83.8162 80.5781 82.7225 80.4062 81.66 79.9688C80.4412 79.375 79.6287 78.4688 79.2225 77.25C78.8162 76.0312 78.5506 74.7656 78.4256 73.4531C78.3006 72.3906 78.1131 71.4531 77.8631 70.6406C77.6444 69.8281 77.1912 69.3125 76.5037 69.0938C75.5037 69.0625 74.41 69.6719 73.2225 70.9219C72.035 72.1719 70.8787 73.6406 69.7537 75.3281C68.66 77.0156 67.7225 78.5156 66.9412 79.8281C66.5975 80.4219 66.3162 80.9062 66.0975 81.2812L62.9569 86.5781C62.9569 86.5781 62.9569 86.5938 62.9569 86.625C62.9569 86.625 62.9569 86.6406 62.9569 86.6719C62.6444 87.1406 62.2225 87.4219 61.6912 87.5156C61.16 87.6094 60.66 87.5 60.1912 87.1875C58.91 86.0938 58.2537 84.1875 58.2225 81.4688C58.1912 78.7188 58.4569 75.8125 59.0194 72.75C59.5819 69.6875 60.1131 67.1562 60.6131 65.1562C60.7381 64.6875 60.8319 64.2812 60.8944 63.9375C60.2694 64.0312 59.6287 64.0156 58.9725 63.8906C58.4412 63.7656 58.0506 63.5 57.8006 63.0938C57.5194 62.6562 57.4256 62.1719 57.5194 61.6406C57.6444 61.1406 57.9256 60.75 58.3631 60.4688C58.7694 60.1875 59.2225 60.0938 59.7225 60.1875C60.1287 60.3125 60.5194 60.3125 60.8944 60.1875C61.2694 60.0312 61.6444 59.8281 62.0194 59.5781C62.3944 58.0469 63.0975 55.5938 64.1287 52.2188C65.1912 48.8438 66.4569 45.1094 67.9256 41.0156C69.4256 36.8906 71.0662 32.9688 72.8475 29.25C74.6287 25.5 76.4412 22.5 78.285 20.25C80.1287 17.9687 81.9256 16.9844 83.6756 17.2969C83.7381 17.3281 83.8006 17.3438 83.8631 17.3438C84.9256 17.8125 85.4569 18.6562 85.4569 19.875C85.4569 21.0938 85.3162 22.2188 85.035 23.25C85.0037 23.4062 84.9725 23.5625 84.9412 23.7188C83.91 27.5938 82.6131 31.375 81.0506 35.0625C79.5194 38.75 77.8319 42.375 75.9881 45.9375C73.6131 50.75 70.7225 55.2656 67.3162 59.4844C66.4725 60.4531 65.5194 61.3594 64.4569 62.2031C63.7381 65.2969 63.0975 68.4219 62.535 71.5781C62.0037 74.7031 61.7537 77.8281 61.785 80.9531C61.9412 80.7031 62.0975 80.4375 62.2537 80.1562C63.1912 78.5312 64.3319 76.7031 65.6756 74.6719C67.0194 72.6094 68.4725 70.75 70.035 69.0938C71.6287 67.4375 73.2537 66.4062 74.91 66C76.3162 65.7188 77.5194 65.9375 78.5194 66.6562C79.5194 67.375 80.1756 68.4219 80.4881 69.7969C80.6756 70.7969 80.7537 72.0156 80.7225 73.4531C80.6912 74.5469 80.7225 75.5938 80.8162 76.5938C80.91 77.5938 81.1756 78.3906 81.6131 78.9844C82.4569 79.7656 84.1912 79.7344 86.8162 78.8906C89.4412 78.0156 92.7069 76.4219 96.6131 74.1094C98.7381 72.9219 100.691 71.5312 102.472 69.9375C103.066 69.4062 103.551 68.8594 103.926 68.2969C104.176 67.9219 104.504 67.6875 104.91 67.5938C105.316 67.5 105.707 67.5781 106.082 67.8281ZM68.4412 47.9062C67.6287 50.4688 66.8631 53.0312 66.1444 55.5938C68.8944 52.125 71.3006 48.4375 73.3631 44.5312C75.8631 39.9688 78.0662 35.2656 79.9725 30.4219C80.91 28.0156 81.7069 25.5781 82.3631 23.1094C82.3631 23.0781 82.3631 23.0469 82.3631 23.0156C82.6444 21.9844 82.785 20.9375 82.785 19.875C81.7225 20.2813 80.7069 21.1562 79.7381 22.5C78.8006 23.8438 78.035 25.0625 77.4412 26.1562C77.41 26.2187 77.3787 26.2813 77.3475 26.3438C73.7225 33.25 70.7537 40.4375 68.4412 47.9062ZM62.4412 84.1875H62.4881C62.4881 84.1875 62.4725 84.1875 62.4412 84.1875ZM150.429 68.6719C150.617 69.0781 150.617 69.4688 150.429 69.8438C150.242 70.2188 149.945 70.4688 149.539 70.5938C148.632 70.8125 147.742 71.0469 146.867 71.2969C144.742 71.8594 142.601 72.3906 140.445 72.8906C140.289 72.9219 140.132 72.9531 139.976 72.9844C137.945 73.4844 135.882 73.8906 133.789 74.2031C131.726 74.5156 129.648 74.5781 127.554 74.3906C124.492 73.9531 122.554 72.75 121.742 70.7812C120.961 68.8125 120.82 66.4531 121.32 63.7031C121.32 63.6719 121.32 63.6719 121.32 63.7031C120.82 64.0156 120.351 64.375 119.914 64.7812C119.914 64.7812 119.914 64.7969 119.914 64.8281C120.039 64.9844 120.164 65.1562 120.289 65.3438C120.57 65.8125 120.664 66.3125 120.57 66.8438C120.507 67.375 120.257 67.8281 119.82 68.2031C119.32 68.5156 118.804 68.6406 118.273 68.5781C117.742 68.4844 117.289 68.2031 116.914 67.7344C116.914 67.7031 116.914 67.7031 116.914 67.7344C115.789 68.8906 114.679 70.0781 113.586 71.2969C111.742 73.2969 109.836 75.2812 107.867 77.25C107.679 77.375 107.507 77.5312 107.351 77.7188C106.414 78.625 105.336 79.4531 104.117 80.2031C102.898 80.9531 101.664 81.0156 100.414 80.3906C100.32 80.3281 100.226 80.2656 100.132 80.2031C99.1325 79.3906 98.5231 78.3906 98.3044 77.2031C98.0544 75.9844 98.07 74.7969 98.3512 73.6406C99.3512 69.4844 101.476 66 104.726 63.1875C106.632 61.5312 108.726 60.5469 111.007 60.2344C113.289 59.9219 115.461 60.5938 117.523 62.25C117.554 62.25 117.57 62.25 117.57 62.25C118.414 61.5 119.367 60.8438 120.429 60.2812C120.992 59.9688 121.617 59.8125 122.304 59.8125C122.992 59.8125 123.586 60.0625 124.086 60.5625C124.523 61.0938 124.726 61.6719 124.695 62.2969C124.695 62.8906 124.617 63.4688 124.461 64.0312C124.461 64.125 124.445 64.2031 124.414 64.2656C124.351 64.5469 124.289 64.8594 124.226 65.2031C123.851 66.5156 123.617 67.8906 123.523 69.3281C123.429 70.7656 123.851 71.9219 124.789 72.7969C126.414 73.8281 128.539 74.0938 131.164 73.5938C133.789 73.0938 136.211 72.4688 138.429 71.7188C138.992 71.5312 139.507 71.3594 139.976 71.2031C142.914 70.3281 145.789 69.25 148.601 67.9688C148.976 67.8125 149.336 67.7969 149.679 67.9219C150.023 68.0469 150.273 68.2969 150.429 68.6719ZM110.351 69.2344C110.351 69.2344 110.351 69.2188 110.351 69.1875C111.695 67.8438 113.054 66.4844 114.429 65.1094C112.742 64.2656 110.945 64.625 109.039 66.1875C107.132 67.75 105.507 69.625 104.164 71.8125C102.851 73.9688 102.242 75.5625 102.336 76.5938C103.336 75.9688 104.273 75.2188 105.148 74.3438C106.773 72.8438 108.398 71.25 110.023 69.5625C110.117 69.4688 110.226 69.3594 110.351 69.2344ZM185.636 69.1406C185.699 69.4531 185.621 69.7344 185.402 69.9844C185.214 70.2344 184.949 70.3594 184.605 70.3594C184.167 70.3594 183.73 70.3594 183.292 70.3594C181.042 70.4219 178.792 70.4219 176.542 70.3594C176.417 70.3594 176.292 70.3594 176.167 70.3594C174.48 70.2969 172.652 70.1562 170.683 69.9375C168.746 69.7188 166.917 69.2656 165.199 68.5781C163.48 67.8594 162.136 66.7656 161.167 65.2969C160.417 63.9531 159.996 62.5469 159.902 61.0781C159.871 60.9219 159.855 60.7656 159.855 60.6094C159.824 60.1094 159.699 59.6719 159.48 59.2969C159.48 59.2969 159.464 59.2969 159.433 59.2969C159.402 59.2969 159.386 59.2969 159.386 59.2969C159.355 59.2969 159.308 59.2969 159.246 59.2969C159.183 59.2969 159.121 59.2969 159.058 59.2969C159.027 59.2969 159.011 59.2969 159.011 59.2969C157.449 59.9844 155.746 62.0938 153.902 65.625C152.089 69.1562 150.417 72.8906 148.886 76.8281C147.386 80.7656 146.324 83.6719 145.699 85.5469C145.386 86.2656 144.933 86.6875 144.339 86.8125C143.714 86.9062 143.167 86.7656 142.699 86.3906C142.199 85.9844 141.98 85.3906 142.042 84.6094C142.042 84.6094 142.199 83.7031 142.511 81.8906C142.824 80.0469 143.214 77.7969 143.683 75.1406C144.121 72.4531 144.558 69.7812 144.996 67.125C145.464 64.4375 145.855 62.1875 146.167 60.375C146.48 58.5312 146.636 57.6094 146.636 57.6094C146.855 56.7969 147.277 56.3125 147.902 56.1562C148.527 55.9688 149.105 56.0625 149.636 56.4375C150.167 56.8125 150.402 57.4062 150.339 58.2188L148.792 67.3594C148.792 67.4219 148.808 67.4844 148.839 67.5469C148.902 67.5781 148.949 67.5938 148.98 67.5938C149.042 67.5625 149.089 67.5156 149.121 67.4531C149.839 65.9844 150.714 64.4219 151.746 62.7656C152.777 61.0781 153.902 59.6406 155.121 58.4531C156.371 57.2344 157.667 56.5938 159.011 56.5312C159.699 56.5312 160.308 56.7188 160.839 57.0938C161.402 57.4375 161.792 57.9375 162.011 58.5938C162.199 59.4062 162.277 60.2188 162.246 61.0312C162.246 61.625 162.277 62.2031 162.339 62.7656C162.777 65.0469 164.058 66.5938 166.183 67.4062C168.339 68.2188 170.48 68.6875 172.605 68.8125C176.574 69.0625 180.511 68.8594 184.417 68.2031C184.73 68.1719 184.996 68.25 185.214 68.4375C185.464 68.5938 185.605 68.8281 185.636 69.1406ZM260.827 68.8125C261.015 69.125 261.077 69.4531 261.015 69.7969C260.952 70.1094 260.765 70.3594 260.452 70.5469C257.671 72.2031 254.827 73.7656 251.921 75.2344C250.171 76.1094 248.249 76.8906 246.156 77.5781C244.093 78.2344 242.046 78.5 240.015 78.375C238.015 78.2188 236.218 77.3594 234.624 75.7969C233.687 74.7969 232.921 73.7031 232.327 72.5156C231.734 71.2969 231.218 70.0625 230.781 68.8125C230.749 68.75 230.718 68.6875 230.687 68.625C230.624 68.4375 230.546 68.25 230.452 68.0625C230.202 67.375 229.906 66.7344 229.562 66.1406C229.499 66.0469 229.406 65.9844 229.281 65.9531C229.187 65.9219 229.093 65.9375 228.999 66C227.906 66.6875 226.906 67.5156 225.999 68.4844C225.843 68.6406 225.687 68.7812 225.531 68.9062C222.937 71.625 220.468 74.4844 218.124 77.4844C217.531 78.2344 216.937 78.9844 216.343 79.7344C216.124 80.0156 215.921 80.2812 215.734 80.5312C215.234 81.125 214.624 81.3594 213.906 81.2344C213.218 81.0781 212.749 80.6406 212.499 79.9219C211.906 77.6094 212.077 75.2656 213.015 72.8906C213.952 70.4844 215.093 68.1562 216.437 65.9062C217.687 63.7812 218.624 61.8438 219.249 60.0938C219.906 58.3438 219.781 56.8906 218.874 55.7344C217.968 54.5469 215.827 53.7656 212.452 53.3906C209.39 53.1094 205.921 53.1406 202.046 53.4844C198.202 53.8281 194.781 54.3281 191.781 54.9844C191.562 55.0156 191.359 55.0625 191.171 55.125C189.452 55.4688 187.843 56.0156 186.343 56.7656C186.249 56.8281 186.171 56.8906 186.109 56.9531C186.234 56.9844 186.359 57.0156 186.484 57.0469C187.921 57.3906 189.265 57.9688 190.515 58.7812C192.077 59.9375 193.046 61.3906 193.421 63.1406C193.827 64.8594 193.843 66.625 193.468 68.4375C193.156 70.1562 192.359 72.1406 191.077 74.3906C189.827 76.6094 188.281 78.4219 186.437 79.8281C184.593 81.2031 182.656 81.4844 180.624 80.6719C180.468 80.6094 180.312 80.5156 180.156 80.3906C178.781 79.2969 178.093 77.8438 178.093 76.0312C178.093 74.1875 178.359 72.5 178.89 70.9688C179.515 68.9062 180.484 66.9688 181.796 65.1562C183.14 63.3438 184.89 62.0938 187.046 61.4062C187.452 61.3438 187.765 61.4375 187.984 61.6875C188.202 61.9062 188.281 62.1875 188.218 62.5312C188.187 62.8438 187.999 63.0781 187.656 63.2344C186.499 63.8594 185.249 65.3594 183.906 67.7344C182.562 70.1094 181.546 72.5312 180.859 75C180.171 77.4375 180.249 79.0781 181.093 79.9219C181.124 79.9219 181.14 79.9219 181.14 79.9219C181.171 79.9531 181.202 79.9688 181.234 79.9688C181.296 80 181.343 80.0156 181.374 80.0156C181.374 80.0156 181.39 80.0312 181.421 80.0625C182.546 80.4062 183.718 79.8438 184.937 78.375C186.156 76.9062 187.234 75.0469 188.171 72.7969C189.109 70.5156 189.718 68.3438 189.999 66.2812C190.312 64.2188 190.124 62.7656 189.437 61.9219C188.093 60.6719 186.812 59.7656 185.593 59.2031C184.781 58.7969 184.218 58.4219 183.906 58.0781C183.843 57.9531 183.796 57.8594 183.765 57.7969C183.765 57.7031 183.749 57.6094 183.718 57.5156C183.687 56.7656 183.968 56.2031 184.562 55.8281C185.156 55.4219 185.796 55.1094 186.484 54.8906C186.671 54.8281 186.859 54.7656 187.046 54.7031C188.484 54.2031 189.952 53.8125 191.452 53.5312C197.39 52.375 203.374 51.8906 209.406 52.0781C209.499 52.0781 209.577 52.0781 209.64 52.0781C211.077 52.0781 212.687 52.25 214.468 52.5938C216.249 52.9062 217.765 53.7188 219.015 55.0312C220.265 56.3125 220.812 58.3906 220.656 61.2656C220.499 64.1094 219.202 68.0625 216.765 73.125C218.702 70.75 220.781 68.4844 222.999 66.3281C223.124 66.2344 223.249 66.125 223.374 66C224.249 65.125 225.296 64.2812 226.515 63.4688C227.765 62.625 228.984 62.2812 230.171 62.4375C230.89 62.6562 231.468 63.1094 231.906 63.7969C232.374 64.4531 232.718 65.0938 232.937 65.7188C233.312 66.8438 233.671 68.0469 234.015 69.3281C234.515 71.6094 235.218 73.6406 236.124 75.4219C237.156 76.9531 238.843 77.5469 241.187 77.2031C243.531 76.8594 246.031 76.0469 248.687 74.7656C251.343 73.4531 253.671 72.1719 255.671 70.9219C257.671 69.6406 258.843 68.8594 259.187 68.5781C259.437 68.3906 259.718 68.3281 260.031 68.3906C260.343 68.4219 260.609 68.5625 260.827 68.8125ZM266.034 40.6406C266.691 42.4531 266.738 44.2656 266.175 46.0781C265.613 47.8594 264.566 49.3125 263.034 50.4375C262.097 51.125 261.081 51.5469 259.988 51.7031C259.863 51.7031 259.753 51.6719 259.659 51.6094C259.597 51.5469 259.55 51.4531 259.519 51.3281C259.519 51.2344 259.534 51.1562 259.566 51.0938C259.628 51 259.706 50.9375 259.8 50.9062C261.081 50.375 262.05 49.5 262.706 48.2812C263.394 47.0625 263.659 45.7812 263.503 44.4375C263.378 43.625 263.097 42.9375 262.659 42.375C262.347 41.9375 262.222 41.4688 262.284 40.9688C262.378 40.4688 262.628 40.0469 263.034 39.7031C263.597 39.3281 264.175 39.2344 264.769 39.4219C265.363 39.6094 265.784 40.0156 266.034 40.6406ZM307.522 68.9062C307.585 69.25 307.522 69.5781 307.335 69.8906C307.147 70.1719 306.866 70.3594 306.491 70.4531C306.46 70.4531 306.429 70.4531 306.397 70.4531C306.116 70.4844 305.835 70.4844 305.554 70.4531C305.241 70.4531 304.929 70.4688 304.616 70.5C303.054 70.5625 301.491 70.7344 299.929 71.0156C295.772 71.8281 291.71 73.0156 287.741 74.5781C284.554 75.7656 281.444 77.1562 278.413 78.75C278.319 78.8125 278.257 78.8906 278.226 78.9844C278.194 79.0781 278.194 79.1719 278.226 79.2656C278.757 80.9219 278.507 82.375 277.476 83.625C276.444 84.875 275.179 85.7969 273.679 86.3906C272.804 86.7656 271.882 86.9531 270.913 86.9531C270.882 86.9531 270.866 86.9531 270.866 86.9531C270.679 86.9531 270.444 86.8906 270.163 86.7656C270.132 86.7656 270.116 86.75 270.116 86.7188C268.585 85.5938 268.413 84.3438 269.601 82.9688C270.788 81.5938 272.491 80.3125 274.71 79.125C274.804 79.0312 274.866 78.9375 274.897 78.8438C274.929 78.7188 274.897 78.5938 274.804 78.4688C273.929 77.3125 273.038 76.1562 272.132 75C271.132 73.7812 270.147 72.5156 269.179 71.2031C269.179 71.2031 269.163 71.1875 269.132 71.1562C268.413 70.2188 267.757 69.2344 267.163 68.2031C266.569 67.1406 266.194 66 266.038 64.7812C265.882 63.3125 266.194 61.9688 266.976 60.75C267.757 59.5312 268.741 58.5781 269.929 57.8906C271.366 57.0156 273.022 56.4375 274.897 56.1562C276.772 55.8438 278.491 56.0312 280.054 56.7188C281.647 57.5625 282.288 58.625 281.976 59.9062C281.663 61.1562 280.819 62.4531 279.444 63.7969C278.101 65.1406 276.663 66.3438 275.132 67.4062C273.601 68.4375 272.429 69.1406 271.616 69.5156C272.397 70.6719 273.226 71.8438 274.101 73.0312C275.132 74.4688 276.147 75.9219 277.147 77.3906C277.21 77.4844 277.288 77.5469 277.382 77.5781C277.476 77.6094 277.569 77.5938 277.663 77.5312C279.069 76.875 280.163 76.3594 280.944 75.9844C281.101 75.9219 281.241 75.875 281.366 75.8438C287.272 73.2812 293.335 71.125 299.554 69.375C301.616 68.7812 303.741 68.2656 305.929 67.8281C306.304 67.7656 306.632 67.8438 306.913 68.0625C307.226 68.25 307.429 68.5312 307.522 68.9062ZM280.569 57.5625C280.538 57.5312 280.507 57.5 280.476 57.4688C279.632 56.8125 278.21 56.7656 276.21 57.3281C274.241 57.8906 272.522 58.9688 271.054 60.5625C269.616 62.1562 269.257 64.1562 269.976 66.5625C270.038 66.6875 270.163 66.7812 270.351 66.8438C270.538 66.9062 270.757 66.875 271.007 66.75C272.007 66.1875 273.335 65.3281 274.991 64.1719C276.647 63.0156 278.069 61.8281 279.257 60.6094C280.476 59.3594 280.913 58.3438 280.569 57.5625ZM269.882 85.6875C270.288 86.0625 270.991 86.0156 271.991 85.5469C272.991 85.0469 273.913 84.3438 274.757 83.4375C275.632 82.5 276.085 81.6094 276.116 80.7656C276.116 80.5781 276.038 80.4531 275.882 80.3906C275.757 80.3281 275.616 80.3281 275.46 80.3906C274.741 80.7969 273.897 81.3281 272.929 81.9844C271.96 82.6406 271.147 83.3125 270.491 84C269.835 84.6562 269.632 85.2188 269.882 85.6875Z" fill="white"/>
</svg>
