<svg width="19" height="22" viewBox="0 0 19 22" fill="none" xmlns="http://www.w3.org/2000/svg">
<path d="M14.6032 4.47327C14.7523 4.47326 14.9 4.5044 15.0377 4.56491C15.1754 4.62541 15.3003 4.71406 15.4052 4.82574C15.5101 4.93741 15.593 5.06989 15.6489 5.2155C15.7049 5.36111 15.7329 5.51697 15.7313 5.67404C15.7265 5.99095 15.6049 6.29348 15.392 6.5176C15.1792 6.74171 14.8919 6.86982 14.5909 6.87482C14.2885 6.87482 13.9984 6.74831 13.7845 6.52312C13.5707 6.29793 13.4505 5.99251 13.4505 5.67404C13.4505 5.35558 13.5707 5.05015 13.7845 4.82497C13.9984 4.59978 14.2885 4.47327 14.5909 4.47327H14.6032Z" fill="white"/>
<path d="M18.8828 6.01534C19.0238 7.59055 19.1158 15.0534 18.6743 16.7707C18.4593 17.8145 17.9392 18.7613 17.1871 19.478C16.435 20.1947 15.4886 20.6454 14.4807 20.7668C12.7409 20.947 10.9928 21.0225 9.24484 20.9927C7.48049 21.0461 5.71495 20.9467 3.96604 20.6958C2.9776 20.4845 2.0785 19.9479 1.39856 19.1635C0.718621 18.379 0.29302 17.3874 0.183208 16.3317C-0.0742941 14.6467 -0.0988182 6.80294 0.361008 5.10507C0.592998 4.09189 1.11385 3.17771 1.85363 2.48531C2.5934 1.7929 3.51666 1.35541 4.49944 1.23161C6.08081 1.04378 7.67207 0.963995 9.26323 0.992742C11.0351 0.992742 12.8254 1.04439 13.8983 1.10249C15.1906 1.13526 16.4261 1.6685 17.3684 2.60023C18.2583 3.50118 18.7981 4.71849 18.8828 6.01534ZM17.0435 16.0024C17.3024 12.7278 17.3434 9.43804 17.1661 6.15736C17.1269 5.36099 16.8197 4.60534 16.2995 4.02572C15.7794 3.4461 15.0803 3.08037 14.3274 2.99403C12.75 2.84186 11.1659 2.77936 9.58205 2.80682C7.68756 2.80682 5.80534 2.85846 4.97766 2.9553C4.21711 3.00257 3.49653 3.32974 2.9418 3.87963C2.38707 4.42952 2.03348 5.16717 1.94281 5.96369C1.68252 9.32288 1.65998 12.6978 1.87537 16.0605C1.93765 16.7309 2.19754 17.364 2.61863 17.871C3.03971 18.3781 3.60089 18.7337 4.22354 18.8882C5.91437 19.1445 7.62332 19.2439 9.33067 19.1851C11.3233 19.1851 13.279 19.1206 14.0148 19.0366C14.7849 18.9971 15.5164 18.67 16.0781 18.1139C16.6399 17.5579 16.9952 16.8093 17.0803 16.0024" fill="white"/>
<path d="M9.53894 5.86771C10.1796 5.86763 10.8139 6.00173 11.4049 6.26222C11.9959 6.5227 12.5318 6.90436 12.9814 7.38498C13.431 7.8656 13.7853 8.43559 14.0237 9.06176C14.2622 9.68793 14.3799 10.3578 14.3702 11.0323C14.3605 12.3953 13.8394 13.6991 12.9206 14.6593C12.0019 15.6194 10.7599 16.1583 9.46536 16.1582C8.82444 16.1592 8.18976 16.0257 7.59839 15.7655C7.00701 15.5053 6.47079 15.1237 6.02103 14.6429C5.57126 14.1621 5.21698 13.5917 4.97885 12.9652C4.74073 12.3386 4.62354 11.6684 4.63413 10.9936C4.64384 9.63057 5.16487 8.32686 6.08365 7.36667C7.00243 6.40648 8.24445 5.86767 9.53894 5.86771ZM9.47149 14.3119C10.3034 14.3087 11.1011 13.9633 11.6944 13.3494C12.2878 12.7354 12.6298 11.9016 12.6474 11.0259C12.6621 10.1537 12.3476 9.31104 11.7729 8.68284C11.1981 8.05465 10.4101 7.69229 9.58185 7.67532H9.5512C8.71933 7.6785 7.92159 8.02391 7.32824 8.63784C6.73489 9.25176 6.39293 10.0856 6.37533 10.9613C6.36721 11.3961 6.44111 11.8282 6.59277 12.2327C6.74442 12.6371 6.9708 13.0059 7.2588 13.3175C7.54679 13.6292 7.89067 13.8776 8.27049 14.0482C8.65032 14.2189 9.05854 14.3085 9.47149 14.3119Z" fill="white"/>
</svg>
