<svg width="24" height="25" viewBox="0 0 24 25" fill="none" xmlns="http://www.w3.org/2000/svg">
<path d="M18.0237 4.39722C18.2037 4.39721 18.3819 4.43479 18.548 4.50779C18.7141 4.58079 18.8648 4.68775 18.9914 4.8225C19.118 4.95724 19.2179 5.11709 19.2855 5.29278C19.353 5.46847 19.3868 5.65652 19.3848 5.84604C19.3791 6.22842 19.2323 6.59344 18.9755 6.86385C18.7187 7.13427 18.372 7.28884 18.0089 7.29487C17.6439 7.29487 17.294 7.14222 17.0359 6.87052C16.7779 6.59881 16.6329 6.23029 16.6329 5.84604C16.6329 5.46179 16.7779 5.09328 17.0359 4.82157C17.294 4.54986 17.6439 4.39722 18.0089 4.39722H18.0237Z" fill="#3D3D3D"/>
<path d="M23.1873 6.25795C23.3575 8.15856 23.4685 17.1631 22.9358 19.2351C22.6764 20.4946 22.0489 21.6369 21.1414 22.5017C20.2339 23.3664 19.0919 23.9102 17.8759 24.0567C15.7767 24.2742 13.6675 24.3652 11.5584 24.3293C9.42961 24.3937 7.29936 24.2738 5.18917 23.971C3.99654 23.7161 2.91171 23.0686 2.09131 22.1222C1.27091 21.1757 0.75739 19.9792 0.624894 18.7054C0.314198 16.6724 0.284607 7.20825 0.839422 5.15965C1.11934 3.93717 1.74779 2.83414 2.64038 1.9987C3.53297 1.16326 4.64696 0.635401 5.83275 0.486017C7.74079 0.259395 9.66077 0.163124 11.5806 0.19781C13.7185 0.19781 15.8786 0.260125 17.1732 0.330229C18.7324 0.369763 20.2231 1.01316 21.3602 2.13737C22.4339 3.22442 23.0852 4.6932 23.1873 6.25795ZM20.9681 18.3081C21.2805 14.357 21.33 10.3877 21.116 6.42932C21.0687 5.46843 20.698 4.55668 20.0705 3.85733C19.4429 3.15797 18.5994 2.71669 17.691 2.61252C15.7877 2.42891 13.8763 2.3535 11.9653 2.38663C9.67947 2.38663 7.40842 2.44894 6.40976 2.56578C5.49211 2.62282 4.62266 3.01757 3.95334 3.68106C3.28402 4.34454 2.85739 5.23457 2.74798 6.19563C2.43393 10.2488 2.40673 14.3209 2.66661 18.3782C2.74176 19.1871 3.05534 19.9509 3.56341 20.5627C4.07148 21.1745 4.74858 21.6037 5.49986 21.79C7.53997 22.0993 9.60195 22.2192 11.662 22.1483C14.0662 22.1483 16.426 22.0704 17.3137 21.9691C18.2429 21.9214 19.1255 21.5267 19.8033 20.8558C20.4812 20.1849 20.9098 19.2817 21.0125 18.3081" fill="#3D3D3D"/>
<path d="M11.9133 6.07983C12.6863 6.07974 13.4517 6.24155 14.1647 6.55584C14.8778 6.87014 15.5244 7.33064 16.0669 7.91054C16.6094 8.49045 17.0369 9.17818 17.3246 9.9337C17.6122 10.6892 17.7543 11.4975 17.7425 12.3113C17.7308 13.9559 17.1022 15.529 15.9936 16.6875C14.885 17.846 13.3864 18.4962 11.8245 18.4961C11.0512 18.4973 10.2854 18.3362 9.57188 18.0222C8.85833 17.7083 8.21134 17.2479 7.66867 16.6677C7.126 16.0876 6.69852 15.3995 6.41121 14.6435C6.12389 13.8875 5.9825 13.0788 5.99527 12.2646C6.00699 10.62 6.63566 9.04699 7.74423 7.88845C8.85281 6.7299 10.3514 6.07979 11.9133 6.07983ZM11.8319 16.2683C12.8356 16.2645 13.7982 15.8478 14.5141 15.107C15.23 14.3663 15.6426 13.3602 15.6638 12.3036C15.6817 11.2512 15.3022 10.2345 14.6087 9.47651C13.9152 8.71854 12.9644 8.28133 11.9651 8.26086H11.9281C10.9244 8.26469 9.96185 8.68145 9.24592 9.4222C8.53 10.163 8.11739 11.169 8.09617 12.2257C8.08636 12.7502 8.17554 13.2716 8.35852 13.7596C8.5415 14.2477 8.81465 14.6926 9.16213 15.0686C9.50962 15.4447 9.92453 15.7443 10.3828 15.9503C10.8411 16.1562 11.3337 16.2643 11.8319 16.2683Z" fill="#3D3D3D"/>
</svg>
