<svg width="20" height="18" viewBox="0 0 20 18" fill="none" xmlns="http://www.w3.org/2000/svg">
<path d="M20 2.90419C19.8597 3.1164 19.7056 3.31931 19.5385 3.51163C19.105 4.04074 18.6021 4.51057 18.0431 4.90875L17.9692 5.03631C17.9915 5.64506 17.9627 6.25458 17.8831 6.85863C17.7147 8.10704 17.3515 9.32217 16.8062 10.4608C16.2403 11.6334 15.4836 12.7066 14.5662 13.6377C13.0377 15.2039 11.0708 16.2846 8.91692 16.7417C8.16527 16.8955 7.40122 16.9829 6.63385 17.0029H6.26462C4.08728 17.0101 1.95286 16.4054 0.110769 15.2595L0 15.1867C0.318816 15.2207 0.639328 15.2369 0.96 15.2352C2.03632 15.2372 3.10258 15.0308 4.09846 14.6278C4.80071 14.3452 5.45942 13.967 6.05539 13.504C5.20783 13.4872 4.38693 13.2086 3.70809 12.7074C3.02925 12.2062 2.52659 11.5076 2.27077 10.7098C2.52011 10.7581 2.7736 10.7825 3.02769 10.7827C3.36327 10.7803 3.69758 10.7416 4.02462 10.6673L4.08615 10.6369C3.54172 10.5294 3.02565 10.3121 2.5703 9.99851C2.11495 9.68493 1.73014 9.28186 1.44 8.8146C1.04069 8.17003 0.837739 7.42565 0.855385 6.67033C1.42314 6.97346 2.05617 7.13801 2.70154 7.15021C1.85813 6.57508 1.26495 5.70764 1.04 4.72044C0.782135 3.71024 0.939182 2.64039 1.47692 1.74398C2.49713 2.99409 3.77209 4.01861 5.21917 4.75112C6.66625 5.48363 8.25312 5.90778 9.87692 5.99607C9.87692 5.83206 9.83385 5.69235 9.81538 5.55264C9.69649 4.62768 9.9146 3.69112 10.4308 2.91027C10.7328 2.42436 11.1389 2.00949 11.6204 1.6947C12.1019 1.37992 12.6473 1.17284 13.2185 1.08794C13.4655 1.03452 13.7166 1.002 13.9692 0.990753C14.4995 0.995353 15.0235 1.10529 15.5098 1.31401C15.9961 1.52273 16.4349 1.82596 16.8 2.20564C16.8385 2.24609 16.8915 2.27007 16.9477 2.27245H17.0154C17.8555 2.08728 18.6611 1.77371 19.4031 1.34307H19.4585C19.1616 2.25727 18.5441 3.03697 17.7169 3.54201C18.506 3.44341 19.2756 3.22841 20 2.90419Z" fill="white"/>
</svg>
