<svg width="25" height="20" viewBox="0 0 25 20" fill="none" xmlns="http://www.w3.org/2000/svg">
<path d="M24.4038 2.91735C24.2346 3.17339 24.0486 3.41822 23.847 3.65028C23.3239 4.28868 22.7172 4.85556 22.0427 5.336L21.9536 5.48991C21.9804 6.22441 21.9457 6.95985 21.8496 7.68869C21.6465 9.19498 21.2082 10.6611 20.5502 12.0349C19.8675 13.4498 18.9545 14.7447 17.8475 15.8681C16.0033 17.7578 13.6301 19.0618 11.0313 19.6134C10.1243 19.799 9.20246 19.9044 8.27657 19.9285H7.83106C5.20395 19.9372 2.6286 19.2076 0.405983 17.825L0.272331 17.7371C0.657007 17.7782 1.04373 17.7977 1.43064 17.7957C2.7293 17.7981 4.01583 17.549 5.21743 17.0628C6.06475 16.7218 6.85953 16.2654 7.57861 15.7069C6.55597 15.6865 5.5655 15.3504 4.74642 14.7456C3.92735 14.1409 3.32085 13.298 3.01219 12.3354C3.31303 12.3937 3.61888 12.4232 3.92547 12.4234C4.33038 12.4205 4.73374 12.3738 5.12833 12.2841L5.20258 12.2475C4.54568 12.1178 3.923 11.8555 3.37359 11.4772C2.82417 11.0988 2.35987 10.6125 2.0098 10.0487C1.528 9.27099 1.28313 8.37284 1.30442 7.46148C1.98945 7.82724 2.75325 8.02577 3.53194 8.04049C2.5143 7.34655 1.79859 6.29992 1.52717 5.10879C1.21604 3.88991 1.40553 2.59905 2.05435 1.51747C3.2853 3.02582 4.82365 4.26198 6.56965 5.14581C8.31566 6.02964 10.2303 6.54141 12.1896 6.64793C12.1896 6.45004 12.1376 6.28147 12.1153 6.1129C11.9719 4.99687 12.235 3.86684 12.8578 2.92468C13.2223 2.33839 13.7122 1.83782 14.2932 1.45801C14.8742 1.07821 15.5323 0.828341 16.2214 0.72591C16.5194 0.661448 16.8225 0.622217 17.1273 0.608643C17.7671 0.614193 18.3993 0.746839 18.9861 0.998677C19.5729 1.25051 20.1023 1.61639 20.5428 2.07449C20.5893 2.1233 20.6532 2.15223 20.721 2.15511H20.8027C21.8163 1.93169 22.7883 1.55334 23.6836 1.03374H23.7504C23.3922 2.1368 22.6471 3.07756 21.6491 3.68692C22.6012 3.56796 23.5298 3.30854 24.4038 2.91735Z" fill="#3D3D3D"/>
</svg>
