<svg width="20" height="16" viewBox="0 0 20 16" fill="none" xmlns="http://www.w3.org/2000/svg">
<path d="M19.4843 2.79758C20.1964 4.67007 20.1714 11.5359 19.3094 13.4084C19.0757 13.881 18.6942 14.2645 18.2226 14.5007C17.548 14.8502 13.6317 15.0125 9.79661 15.0125C6.27381 15.0125 2.80722 14.8752 2.00148 14.6068C1.64202 14.4977 1.31469 14.3025 1.04798 14.0382C0.781267 13.7738 0.583255 13.4483 0.471184 13.09C-0.153426 11.2612 -0.315824 3.62148 0.977118 2.111C1.39812 1.60976 1.99923 1.29373 2.65107 1.23093C4.19386 1.0624 7.16075 0.981262 10.0839 0.981262C13.7316 0.981262 17.3044 1.1061 17.9852 1.35576C18.3287 1.46571 18.6424 1.65283 18.9023 1.90276C19.1621 2.1527 19.3612 2.4588 19.4843 2.79758ZM7.48555 10.9991L13.7316 7.77217L7.55426 4.539C7.55426 6.6986 7.55426 8.83325 7.50429 10.9991" fill="white"/>
</svg>
