<svg width="25" height="18" viewBox="0 0 25 18" fill="none" xmlns="http://www.w3.org/2000/svg">
<path d="M23.8381 2.99523C24.6972 5.25454 24.6671 13.5386 23.6271 15.798C23.3451 16.3682 22.8847 16.8309 22.3157 17.1159C21.5018 17.5376 16.7765 17.7334 12.1491 17.7334C7.89861 17.7334 3.71592 17.5677 2.74373 17.2439C2.31002 17.1123 1.91507 16.8768 1.59326 16.5579C1.27145 16.2389 1.03253 15.8462 0.897311 15.4139C0.143673 13.2073 -0.0522733 3.98933 1.50776 2.16682C2.01573 1.56204 2.74101 1.18072 3.52751 1.10495C5.389 0.901614 8.96878 0.803711 12.4958 0.803711C16.8971 0.803711 21.2079 0.954331 22.0293 1.25557C22.4438 1.38823 22.8223 1.61401 23.1358 1.91557C23.4493 2.21714 23.6896 2.58647 23.8381 2.99523ZM9.36067 12.891L16.8971 8.99745L9.44357 5.09639C9.44357 7.70212 9.44357 10.2777 9.38328 12.891" fill="#3D3D3D"/>
</svg>
